<svg width="550" height="550" viewBox="0 0 550 550" xmlns="http://www.w3.org/2000/svg" xmlns:sketch="http://www.bohemiancoding.com/sketch/ns"><title>Logo</title><desc>Created with Sketch.</desc><defs><filter x="-50%" y="-50%" width="200%" height="200%" filterUnits="objectBoundingBox" id="a"><feOffset dy="2" in="SourceAlpha" result="shadowOffsetOuter1"/><feGaussianBlur stdDeviation="2" in="shadowOffsetOuter1" result="shadowBlurOuter1"/><feColorMatrix values="0 0 0 0 0 0 0 0 0 0 0 0 0 0 0 0 0 0 0.168 0" in="shadowBlurOuter1" result="shadowMatrixOuter1"/><feMerge><feMergeNode in="shadowMatrixOuter1"/><feMergeNode in="SourceGraphic"/></feMerge></filter><filter x="-50%" y="-50%" width="200%" height="200%" filterUnits="objectBoundingBox" id="b"><feOffset dy="2" in="SourceAlpha" result="shadowOffsetOuter1"/><feGaussianBlur stdDeviation="2" in="shadowOffsetOuter1" result="shadowBlurOuter1"/><feColorMatrix values="0 0 0 0 0 0 0 0 0 0 0 0 0 0 0 0 0 0 0.168 0" in="shadowBlurOuter1" result="shadowMatrixOuter1"/><feMerge><feMergeNode in="shadowMatrixOuter1"/><feMergeNode in="SourceGraphic"/></feMerge></filter><filter x="-50%" y="-50%" width="200%" height="200%" filterUnits="objectBoundingBox" id="c"><feOffset dy="2" in="SourceAlpha" result="shadowOffsetOuter1"/><feGaussianBlur stdDeviation="2" in="shadowOffsetOuter1" result="shadowBlurOuter1"/><feColorMatrix values="0 0 0 0 0 0 0 0 0 0 0 0 0 0 0 0 0 0 0.168 0" in="shadowBlurOuter1" result="shadowMatrixOuter1"/><feMerge><feMergeNode in="shadowMatrixOuter1"/><feMergeNode in="SourceGraphic"/></feMerge></filter><filter x="-50%" y="-50%" width="200%" height="200%" filterUnits="objectBoundingBox" id="d"><feOffset dy="2" in="SourceAlpha" result="shadowOffsetOuter1"/><feGaussianBlur stdDeviation="2" in="shadowOffsetOuter1" result="shadowBlurOuter1"/><feColorMatrix values="0 0 0 0 0 0 0 0 0 0 0 0 0 0 0 0 0 0 0.168 0" in="shadowBlurOuter1" result="shadowMatrixOuter1"/><feMerge><feMergeNode in="shadowMatrixOuter1"/><feMergeNode in="SourceGraphic"/></feMerge></filter><filter x="-50%" y="-50%" width="200%" height="200%" filterUnits="objectBoundingBox" id="e"><feOffset dy="2" in="SourceAlpha" result="shadowOffsetOuter1"/><feGaussianBlur stdDeviation="2" in="shadowOffsetOuter1" result="shadowBlurOuter1"/><feColorMatrix values="0 0 0 0 0 0 0 0 0 0 0 0 0 0 0 0 0 0 0.168 0" in="shadowBlurOuter1" result="shadowMatrixOuter1"/><feMerge><feMergeNode in="shadowMatrixOuter1"/><feMergeNode in="SourceGraphic"/></feMerge></filter><filter x="-50%" y="-50%" width="200%" height="200%" filterUnits="objectBoundingBox" id="f"><feOffset dy="2" in="SourceAlpha" result="shadowOffsetOuter1"/><feGaussianBlur stdDeviation="2" in="shadowOffsetOuter1" result="shadowBlurOuter1"/><feColorMatrix values="0 0 0 0 0 0 0 0 0 0 0 0 0 0 0 0 0 0 0.168 0" in="shadowBlurOuter1" result="shadowMatrixOuter1"/><feMerge><feMergeNode in="shadowMatrixOuter1"/><feMergeNode in="SourceGraphic"/></feMerge></filter><filter x="-50%" y="-50%" width="200%" height="200%" filterUnits="objectBoundingBox" id="g"><feOffset dy="2" in="SourceAlpha" result="shadowOffsetOuter1"/><feGaussianBlur stdDeviation="2" in="shadowOffsetOuter1" result="shadowBlurOuter1"/><feColorMatrix values="0 0 0 0 0 0 0 0 0 0 0 0 0 0 0 0 0 0 0.168 0" in="shadowBlurOuter1" result="shadowMatrixOuter1"/><feMerge><feMergeNode in="shadowMatrixOuter1"/><feMergeNode in="SourceGraphic"/></feMerge></filter><filter x="-50%" y="-50%" width="200%" height="200%" filterUnits="objectBoundingBox" id="h"><feOffset dy="2" in="SourceAlpha" result="shadowOffsetOuter1"/><feGaussianBlur stdDeviation="2" in="shadowOffsetOuter1" result="shadowBlurOuter1"/><feColorMatrix values="0 0 0 0 0 0 0 0 0 0 0 0 0 0 0 0 0 0 0.168 0" in="shadowBlurOuter1" result="shadowMatrixOuter1"/><feMerge><feMergeNode in="shadowMatrixOuter1"/><feMergeNode in="SourceGraphic"/></feMerge></filter><filter x="-50%" y="-50%" width="200%" height="200%" filterUnits="objectBoundingBox" id="i"><feOffset dy="2" in="SourceAlpha" result="shadowOffsetOuter1"/><feGaussianBlur stdDeviation="2" in="shadowOffsetOuter1" result="shadowBlurOuter1"/><feColorMatrix values="0 0 0 0 0 0 0 0 0 0 0 0 0 0 0 0 0 0 0.168 0" in="shadowBlurOuter1" result="shadowMatrixOuter1"/><feMerge><feMergeNode in="shadowMatrixOuter1"/><feMergeNode in="SourceGraphic"/></feMerge></filter><filter x="-50%" y="-50%" width="200%" height="200%" filterUnits="objectBoundingBox" id="j"><feOffset dy="2" in="SourceAlpha" result="shadowOffsetOuter1"/><feGaussianBlur stdDeviation="2" in="shadowOffsetOuter1" result="shadowBlurOuter1"/><feColorMatrix values="0 0 0 0 0 0 0 0 0 0 0 0 0 0 0 0 0 0 0.168 0" in="shadowBlurOuter1" result="shadowMatrixOuter1"/><feMerge><feMergeNode in="shadowMatrixOuter1"/><feMergeNode in="SourceGraphic"/></feMerge></filter><filter x="-50%" y="-50%" width="200%" height="200%" filterUnits="objectBoundingBox" id="k"><feOffset dy="2" in="SourceAlpha" result="shadowOffsetOuter1"/><feGaussianBlur stdDeviation="2" in="shadowOffsetOuter1" result="shadowBlurOuter1"/><feColorMatrix values="0 0 0 0 0 0 0 0 0 0 0 0 0 0 0 0 0 0 0.168 0" in="shadowBlurOuter1" result="shadowMatrixOuter1"/><feMerge><feMergeNode in="shadowMatrixOuter1"/><feMergeNode in="SourceGraphic"/></feMerge></filter><filter x="-50%" y="-50%" width="200%" height="200%" filterUnits="objectBoundingBox" id="l"><feOffset dy="2" in="SourceAlpha" result="shadowOffsetOuter1"/><feGaussianBlur stdDeviation="2" in="shadowOffsetOuter1" result="shadowBlurOuter1"/><feColorMatrix values="0 0 0 0 0 0 0 0 0 0 0 0 0 0 0 0 0 0 0.168 0" in="shadowBlurOuter1" result="shadowMatrixOuter1"/><feMerge><feMergeNode in="shadowMatrixOuter1"/><feMergeNode in="SourceGraphic"/></feMerge></filter><filter x="-50%" y="-50%" width="200%" height="200%" filterUnits="objectBoundingBox" id="m"><feOffset dy="2" in="SourceAlpha" result="shadowOffsetOuter1"/><feGaussianBlur stdDeviation="2" in="shadowOffsetOuter1" result="shadowBlurOuter1"/><feColorMatrix values="0 0 0 0 0 0 0 0 0 0 0 0 0 0 0 0 0 0 0.168 0" in="shadowBlurOuter1" result="shadowMatrixOuter1"/><feMerge><feMergeNode in="shadowMatrixOuter1"/><feMergeNode in="SourceGraphic"/></feMerge></filter><filter x="-50%" y="-50%" width="200%" height="200%" filterUnits="objectBoundingBox" id="n"><feOffset dy="2" in="SourceAlpha" result="shadowOffsetOuter1"/><feGaussianBlur stdDeviation="2" in="shadowOffsetOuter1" result="shadowBlurOuter1"/><feColorMatrix values="0 0 0 0 0 0 0 0 0 0 0 0 0 0 0 0 0 0 0.168 0" in="shadowBlurOuter1" result="shadowMatrixOuter1"/><feMerge><feMergeNode in="shadowMatrixOuter1"/><feMergeNode in="SourceGraphic"/></feMerge></filter><filter x="-50%" y="-50%" width="200%" height="200%" filterUnits="objectBoundingBox" id="o"><feOffset dy="2" in="SourceAlpha" result="shadowOffsetOuter1"/><feGaussianBlur stdDeviation="2" in="shadowOffsetOuter1" result="shadowBlurOuter1"/><feColorMatrix values="0 0 0 0 0 0 0 0 0 0 0 0 0 0 0 0 0 0 0.168 0" in="shadowBlurOuter1" result="shadowMatrixOuter1"/><feMerge><feMergeNode in="shadowMatrixOuter1"/><feMergeNode in="SourceGraphic"/></feMerge></filter><filter x="-50%" y="-50%" width="200%" height="200%" filterUnits="objectBoundingBox" id="p"><feOffset dy="2" in="SourceAlpha" result="shadowOffsetOuter1"/><feGaussianBlur stdDeviation="2" in="shadowOffsetOuter1" result="shadowBlurOuter1"/><feColorMatrix values="0 0 0 0 0 0 0 0 0 0 0 0 0 0 0 0 0 0 0.168 0" in="shadowBlurOuter1" result="shadowMatrixOuter1"/><feMerge><feMergeNode in="shadowMatrixOuter1"/><feMergeNode in="SourceGraphic"/></feMerge></filter><filter x="-50%" y="-50%" width="200%" height="200%" filterUnits="objectBoundingBox" id="q"><feOffset dy="2" in="SourceAlpha" result="shadowOffsetOuter1"/><feGaussianBlur stdDeviation="2" in="shadowOffsetOuter1" result="shadowBlurOuter1"/><feColorMatrix values="0 0 0 0 0 0 0 0 0 0 0 0 0 0 0 0 0 0 0.168 0" in="shadowBlurOuter1" result="shadowMatrixOuter1"/><feMerge><feMergeNode in="shadowMatrixOuter1"/><feMergeNode in="SourceGraphic"/></feMerge></filter><filter x="-50%" y="-50%" width="200%" height="200%" filterUnits="objectBoundingBox" id="r"><feOffset dy="2" in="SourceAlpha" result="shadowOffsetOuter1"/><feGaussianBlur stdDeviation="2" in="shadowOffsetOuter1" result="shadowBlurOuter1"/><feColorMatrix values="0 0 0 0 0 0 0 0 0 0 0 0 0 0 0 0 0 0 0.168 0" in="shadowBlurOuter1" result="shadowMatrixOuter1"/><feMerge><feMergeNode in="shadowMatrixOuter1"/><feMergeNode in="SourceGraphic"/></feMerge></filter><filter x="-50%" y="-50%" width="200%" height="200%" filterUnits="objectBoundingBox" id="s"><feOffset dy="2" in="SourceAlpha" result="shadowOffsetOuter1"/><feGaussianBlur stdDeviation="2" in="shadowOffsetOuter1" result="shadowBlurOuter1"/><feColorMatrix values="0 0 0 0 0 0 0 0 0 0 0 0 0 0 0 0 0 0 0.168 0" in="shadowBlurOuter1" result="shadowMatrixOuter1"/><feMerge><feMergeNode in="shadowMatrixOuter1"/><feMergeNode in="SourceGraphic"/></feMerge></filter><filter x="-50%" y="-50%" width="200%" height="200%" filterUnits="objectBoundingBox" id="t"><feOffset dy="2" in="SourceAlpha" result="shadowOffsetOuter1"/><feGaussianBlur stdDeviation="2" in="shadowOffsetOuter1" result="shadowBlurOuter1"/><feColorMatrix values="0 0 0 0 0 0 0 0 0 0 0 0 0 0 0 0 0 0 0.168 0" in="shadowBlurOuter1" result="shadowMatrixOuter1"/><feMerge><feMergeNode in="shadowMatrixOuter1"/><feMergeNode in="SourceGraphic"/></feMerge></filter><filter x="-50%" y="-50%" width="200%" height="200%" filterUnits="objectBoundingBox" id="u"><feOffset dy="2" in="SourceAlpha" result="shadowOffsetOuter1"/><feGaussianBlur stdDeviation="2" in="shadowOffsetOuter1" result="shadowBlurOuter1"/><feColorMatrix values="0 0 0 0 0 0 0 0 0 0 0 0 0 0 0 0 0 0 0.168 0" in="shadowBlurOuter1" result="shadowMatrixOuter1"/><feMerge><feMergeNode in="shadowMatrixOuter1"/><feMergeNode in="SourceGraphic"/></feMerge></filter><filter x="-50%" y="-50%" width="200%" height="200%" filterUnits="objectBoundingBox" id="v"><feOffset dy="2" in="SourceAlpha" result="shadowOffsetOuter1"/><feGaussianBlur stdDeviation="2" in="shadowOffsetOuter1" result="shadowBlurOuter1"/><feColorMatrix values="0 0 0 0 0 0 0 0 0 0 0 0 0 0 0 0 0 0 0.168 0" in="shadowBlurOuter1" result="shadowMatrixOuter1"/><feMerge><feMergeNode in="shadowMatrixOuter1"/><feMergeNode in="SourceGraphic"/></feMerge></filter><filter x="-50%" y="-50%" width="200%" height="200%" filterUnits="objectBoundingBox" id="w"><feOffset dy="2" in="SourceAlpha" result="shadowOffsetOuter1"/><feGaussianBlur stdDeviation="2" in="shadowOffsetOuter1" result="shadowBlurOuter1"/><feColorMatrix values="0 0 0 0 0 0 0 0 0 0 0 0 0 0 0 0 0 0 0.168 0" in="shadowBlurOuter1" result="shadowMatrixOuter1"/><feMerge><feMergeNode in="shadowMatrixOuter1"/><feMergeNode in="SourceGraphic"/></feMerge></filter><filter x="-50%" y="-50%" width="200%" height="200%" filterUnits="objectBoundingBox" id="x"><feOffset dy="2" in="SourceAlpha" result="shadowOffsetOuter1"/><feGaussianBlur stdDeviation="2" in="shadowOffsetOuter1" result="shadowBlurOuter1"/><feColorMatrix values="0 0 0 0 0 0 0 0 0 0 0 0 0 0 0 0 0 0 0.168 0" in="shadowBlurOuter1" result="shadowMatrixOuter1"/><feMerge><feMergeNode in="shadowMatrixOuter1"/><feMergeNode in="SourceGraphic"/></feMerge></filter><filter x="-50%" y="-50%" width="200%" height="200%" filterUnits="objectBoundingBox" id="y"><feOffset dy="2" in="SourceAlpha" result="shadowOffsetOuter1"/><feGaussianBlur stdDeviation="2" in="shadowOffsetOuter1" result="shadowBlurOuter1"/><feColorMatrix values="0 0 0 0 0 0 0 0 0 0 0 0 0 0 0 0 0 0 0.168 0" in="shadowBlurOuter1" result="shadowMatrixOuter1"/><feMerge><feMergeNode in="shadowMatrixOuter1"/><feMergeNode in="SourceGraphic"/></feMerge></filter><filter x="-50%" y="-50%" width="200%" height="200%" filterUnits="objectBoundingBox" id="z"><feOffset dy="2" in="SourceAlpha" result="shadowOffsetOuter1"/><feGaussianBlur stdDeviation="2" in="shadowOffsetOuter1" result="shadowBlurOuter1"/><feColorMatrix values="0 0 0 0 0 0 0 0 0 0 0 0 0 0 0 0 0 0 0.168 0" in="shadowBlurOuter1" result="shadowMatrixOuter1"/><feMerge><feMergeNode in="shadowMatrixOuter1"/><feMergeNode in="SourceGraphic"/></feMerge></filter><filter x="-50%" y="-50%" width="200%" height="200%" filterUnits="objectBoundingBox" id="A"><feOffset dy="2" in="SourceAlpha" result="shadowOffsetOuter1"/><feGaussianBlur stdDeviation="2" in="shadowOffsetOuter1" result="shadowBlurOuter1"/><feColorMatrix values="0 0 0 0 0 0 0 0 0 0 0 0 0 0 0 0 0 0 0.168 0" in="shadowBlurOuter1" result="shadowMatrixOuter1"/><feMerge><feMergeNode in="shadowMatrixOuter1"/><feMergeNode in="SourceGraphic"/></feMerge></filter><filter x="-50%" y="-50%" width="200%" height="200%" filterUnits="objectBoundingBox" id="B"><feOffset dy="2" in="SourceAlpha" result="shadowOffsetOuter1"/><feGaussianBlur stdDeviation="2" in="shadowOffsetOuter1" result="shadowBlurOuter1"/><feColorMatrix values="0 0 0 0 0 0 0 0 0 0 0 0 0 0 0 0 0 0 0.168 0" in="shadowBlurOuter1" result="shadowMatrixOuter1"/><feMerge><feMergeNode in="shadowMatrixOuter1"/><feMergeNode in="SourceGraphic"/></feMerge></filter><filter x="-50%" y="-50%" width="200%" height="200%" filterUnits="objectBoundingBox" id="C"><feOffset dy="2" in="SourceAlpha" result="shadowOffsetOuter1"/><feGaussianBlur stdDeviation="2" in="shadowOffsetOuter1" result="shadowBlurOuter1"/><feColorMatrix values="0 0 0 0 0 0 0 0 0 0 0 0 0 0 0 0 0 0 0.168 0" in="shadowBlurOuter1" result="shadowMatrixOuter1"/><feMerge><feMergeNode in="shadowMatrixOuter1"/><feMergeNode in="SourceGraphic"/></feMerge></filter><filter x="-50%" y="-50%" width="200%" height="200%" filterUnits="objectBoundingBox" id="D"><feOffset dy="2" in="SourceAlpha" result="shadowOffsetOuter1"/><feGaussianBlur stdDeviation="2" in="shadowOffsetOuter1" result="shadowBlurOuter1"/><feColorMatrix values="0 0 0 0 0 0 0 0 0 0 0 0 0 0 0 0 0 0 0.168 0" in="shadowBlurOuter1" result="shadowMatrixOuter1"/><feMerge><feMergeNode in="shadowMatrixOuter1"/><feMergeNode in="SourceGraphic"/></feMerge></filter><filter x="-50%" y="-50%" width="200%" height="200%" filterUnits="objectBoundingBox" id="E"><feOffset dy="2" in="SourceAlpha" result="shadowOffsetOuter1"/><feGaussianBlur stdDeviation="2" in="shadowOffsetOuter1" result="shadowBlurOuter1"/><feColorMatrix values="0 0 0 0 0 0 0 0 0 0 0 0 0 0 0 0 0 0 0.168 0" in="shadowBlurOuter1" result="shadowMatrixOuter1"/><feMerge><feMergeNode in="shadowMatrixOuter1"/><feMergeNode in="SourceGraphic"/></feMerge></filter><filter x="-50%" y="-50%" width="200%" height="200%" filterUnits="objectBoundingBox" id="F"><feOffset dy="2" in="SourceAlpha" result="shadowOffsetOuter1"/><feGaussianBlur stdDeviation="2" in="shadowOffsetOuter1" result="shadowBlurOuter1"/><feColorMatrix values="0 0 0 0 0 0 0 0 0 0 0 0 0 0 0 0 0 0 0.168 0" in="shadowBlurOuter1" result="shadowMatrixOuter1"/><feMerge><feMergeNode in="shadowMatrixOuter1"/><feMergeNode in="SourceGraphic"/></feMerge></filter><filter x="-50%" y="-50%" width="200%" height="200%" filterUnits="objectBoundingBox" id="G"><feOffset dy="2" in="SourceAlpha" result="shadowOffsetOuter1"/><feGaussianBlur stdDeviation="2" in="shadowOffsetOuter1" result="shadowBlurOuter1"/><feColorMatrix values="0 0 0 0 0 0 0 0 0 0 0 0 0 0 0 0 0 0 0.168 0" in="shadowBlurOuter1" result="shadowMatrixOuter1"/><feMerge><feMergeNode in="shadowMatrixOuter1"/><feMergeNode in="SourceGraphic"/></feMerge></filter><filter x="-50%" y="-50%" width="200%" height="200%" filterUnits="objectBoundingBox" id="H"><feOffset dy="2" in="SourceAlpha" result="shadowOffsetOuter1"/><feGaussianBlur stdDeviation="2" in="shadowOffsetOuter1" result="shadowBlurOuter1"/><feColorMatrix values="0 0 0 0 0 0 0 0 0 0 0 0 0 0 0 0 0 0 0.168 0" in="shadowBlurOuter1" result="shadowMatrixOuter1"/><feMerge><feMergeNode in="shadowMatrixOuter1"/><feMergeNode in="SourceGraphic"/></feMerge></filter><filter x="-50%" y="-50%" width="200%" height="200%" filterUnits="objectBoundingBox" id="I"><feOffset dy="2" in="SourceAlpha" result="shadowOffsetOuter1"/><feGaussianBlur stdDeviation="2" in="shadowOffsetOuter1" result="shadowBlurOuter1"/><feColorMatrix values="0 0 0 0 0 0 0 0 0 0 0 0 0 0 0 0 0 0 0.168 0" in="shadowBlurOuter1" result="shadowMatrixOuter1"/><feMerge><feMergeNode in="shadowMatrixOuter1"/><feMergeNode in="SourceGraphic"/></feMerge></filter><filter x="-50%" y="-50%" width="200%" height="200%" filterUnits="objectBoundingBox" id="J"><feOffset dy="2" in="SourceAlpha" result="shadowOffsetOuter1"/><feGaussianBlur stdDeviation="2" in="shadowOffsetOuter1" result="shadowBlurOuter1"/><feColorMatrix values="0 0 0 0 0 0 0 0 0 0 0 0 0 0 0 0 0 0 0.168 0" in="shadowBlurOuter1" result="shadowMatrixOuter1"/><feMerge><feMergeNode in="shadowMatrixOuter1"/><feMergeNode in="SourceGraphic"/></feMerge></filter></defs><g sketch:type="MSArtboardGroup" fill="none"><g sketch:type="MSLayerGroup" fill="#fff"><path d="M179.67 147.607c-.986-.495-1.737-.002-1.679 1.1l11.729 221.063c.059 1.103.968 1.772 2.042 1.492l72.892-19.002c1.069-.279 1.812-1.39 1.657-2.496l-4.56-32.568c-.154-1.1.413-1.416 1.255-.718l65.736 54.585c.847.703 2.219.698 3.07-.017l69.709-58.548c.849-.713.774-1.757-.178-2.337l-86.413-52.733c-.947-.578-1.205-1.776-.572-2.681l39.224-56.124c.631-.903.386-2.1-.563-2.683l-75.627-46.469c-.942-.579-2.076-.238-2.534.765l-26.775 58.646c-.457 1.001-.828.91-.828-.189v-25.122c0-1.106-.803-2.405-1.785-2.899l-65.803-33.066z" sketch:type="MSShapeGroup"/><g sketch:type="MSShapeGroup"><path d="M216.385 72.218l-.97.089c5.803-4.811 4.149-11.098 4.104-11.111-3.542 3.737-6.833 7.534-9.886 11.377-11.051.122-6.113-7.876 3.888-15.008 9.64-7.267 24.343-13.666 24.469-13.461-.121.205-2.023 26.466-21.605 28.114z" id="Shape"/><path d="M217.096 74.663l-.861.415c7.471 1.223 8.896 7.742 8.907 7.714-4.503-1.762-9.097-3.392-13.771-4.883-16.622 11.888 34.402 12.551 34.214 14.155.393.124-9.499-25.725-28.489-17.401z" id="Shape" filter="url(#a)"/><path d="M171.128 90.155l-.95.302c4.446-6.386 1.007-12.773.957-12.78-2.503 4.757-4.731 9.533-6.697 14.31-11.137 2.589-8.445-7.133-.378-16.918 7.661-9.869 20.696-19.801 20.861-19.573-.102.275 5.299 28.781-13.793 34.659z" id="Shape" filter="url(#b)"/><path d="M172.543 92.623l-.746.627c7.841-.275 11.104 6.428 11.111 6.392-4.985-.956-10.049-1.732-15.177-2.319-13.073 16.163 37.967 6.183 37.971 8.168.439.066-16.451-25.815-33.159-12.868z" id="Shape" filter="url(#c)"/><path d="M130.466 119.603l-.884.552c2.649-7.886-2.779-13.88-2.833-13.875-1.162 5.69-2.028 11.335-2.618 16.914-10.74 5.579-10.864-5.533-5.447-17.969 4.97-12.438 15.482-26.199 15.699-25.956-.065.357 13.84 29.522-3.917 40.334z" id="Shape" filter="url(#d)"/><path d="M132.66 121.889c-.206.292-.385.567-.575.849 7.963-2.186 13.292 4.207 13.294 4.161-5.37.148-10.791.535-16.247 1.167-4.175 11.212 5.983 9.139 17.25 6.467 11.263-3.02 23.634-6.637 23.785-6.541.479-.026-24.198-23.96-37.507-6.103z" id="Shape" filter="url(#e)"/><path d="M97.193 161.447l-.757.831c.361-9.111-7.147-14.019-7.204-13.998.507 6.392 1.318 12.649 2.408 18.747-9.609 9.014-13.135-2.83-11.203-17.629 1.457-14.678 8.372-32.311 8.658-32.066.009.445 23.336 27.848 8.098 44.115z" id="Shape" filter="url(#f)"/><path d="M100.195 163.274c-.125.366-.23.708-.342 1.058 7.677-4.502 15.195.875 15.186.819-5.554 1.582-11.111 3.465-16.646 5.653-.958 13.08 9.156 7.934 20.058 2.149 10.821-6.202 22.432-13.041 22.599-12.967.504-.161-32.331-19.386-40.855 3.288z" id="Shape" filter="url(#g)"/><path d="M74.964 215.601l-.546 1.117c-2.445-9.777-11.919-12.698-11.975-12.655 2.507 6.664 5.306 13.072 8.36 19.2-7.385 12.669-14.856 1.185-17.353-15.254-2.98-16.146-.985-37.246-.607-37.032.13.529 33.198 22.779 22.121 44.624z" id="Shape" filter="url(#h)"/><path d="M78.716 216.605c-.02.426-.024.819-.034 1.227 6.743-7.146 16.375-3.715 16.349-3.779-5.385 3.334-10.691 7.03-15.881 11.083 3.062 14.151 12.22 5.403 21.936-3.914 9.512-9.789 19.583-20.148 19.765-20.11.503-.347-40.09-11.273-42.135 15.493z" id="Shape" filter="url(#i)"/><path d="M68.513 280.261l-.216 1.374c-5.766-9.498-16.736-9.366-16.785-9.295 4.806 6.242 9.856 12.077 15.104 17.488-3.565 16.061-15.391 6.578-23.347-10.149-8.411-16.207-12.953-39.658-12.453-39.528.325.58 42.354 13.32 37.697 40.11z" id="Shape" filter="url(#j)"/><path d="M72.812 280.02c.12.458.241.876.363 1.31 4.821-9.887 16.148-9.527 16.097-9.594-4.634 5.318-9.056 11.036-13.215 17.132 7.917 13.838 14.664 1.278 21.95-11.706 6.892-13.468 14.323-27.36 14.515-27.373.457-.586-46.179 1.086-39.71 30.231z" id="Shape" filter="url(#k)"/><path d="M83.944 350.812l.282 1.527c-9.532-7.771-20.964-3.497-20.996-3.395 7.313 4.799 14.77 9.022 22.305 12.667 2.563 18.266-13.745 13.062-28.229-1.727-14.851-13.991-27.876-37.566-27.212-37.609.625.548 48.996-1.247 53.85 28.537z" id="Shape" filter="url(#l)"/><path d="M88.358 348.903c.292.437.575.826.862 1.233 1.418-12.233 13.471-16.138 13.38-16.194-2.962 7.295-5.503 14.97-7.556 22.976 13.574 11.358 15.654-4.507 18.663-20.694 2.327-16.592 5.582-33.506 5.771-33.583.339-.874-48.522 17.924-31.12 46.262z" id="Shape" filter="url(#m)"/><path d="M129.089 418.178l1.008 1.463c-13.572-3.987-23.548 5.205-23.55 5.34 9.847 1.959 19.655 3.179 29.335 3.689 11.99 17.652-8.418 19.667-30.443 10.221-22.21-8.338-46.038-28.138-45.154-28.504 1.079.342 50.234-20.829 68.804 7.791z" id="Shape" filter="url(#n)"/><path d="M132.82 414.319c.507.325.984.608 1.475.907-4.161-13.256 6.781-22.373 6.631-22.395.123 8.753.983 17.747 2.671 26.88 19.895 5.731 13.895-11.496 9.92-29.303-5.083-17.949-8.141-36.479-7.971-36.625.11-1.179-43.868 38.353-12.726 60.536z" id="Shape" filter="url(#o)"/><path d="M213.955 466.433l2.042.98c-17.561 2.518-22.815 16.426-22.766 16.582 12.083-2.648 23.822-6.136 35.092-10.366 26.104 11.427 2.833 24.098-27.541 24.902-30.236 2.204-67.576-7.46-66.398-8.389-.386-.15 11.676-10.945 26.4-19.325 15.123-8.363 32.908-14.31 53.171-4.384z" id="Shape" filter="url(#p)"/><path d="M215.663 460.77c.765.08 1.469.135 2.204.196-12.911-11.294-6.231-25.69-6.468-25.63 5.33 8.721 11.867 17.311 19.734 25.579 26.555-4.194 7.403-18.212-7.465-34.077-16.604-15.412-28.925-32.673-28.803-32.876-.287-1.44-27.29 59.17 20.798 66.808z" id="Shape" filter="url(#q)"/><path d="M328.52 74.664l.861.413c-7.471 1.223-8.896 7.742-8.906 7.714 4.504-1.762 9.097-3.392 13.77-4.882 16.621 11.889-34.401 12.55-34.214 14.153-.394.125 9.498-25.724 28.489-17.398z" id="Shape" filter="url(#r)"/><path d="M329.231 72.218l.969.089c-5.802-4.813-4.146-11.1-4.102-11.114 3.541 3.737 6.833 7.535 9.885 11.378 11.051.123 6.113-7.876-3.889-15.008-9.64-7.266-24.343-13.665-24.469-13.461.121.206 2.022 26.468 21.606 28.116z" id="Shape"/><path d="M373.072 92.623l.745.626c-7.84-.276-11.103 6.427-11.11 6.39 4.985-.956 10.049-1.73 15.178-2.317 13.072 16.162-37.967 6.181-37.971 8.167-.439.067 16.451-25.814 33.158-12.866z" id="Shape" filter="url(#s)"/><path d="M374.488 90.155l.948.302c-4.445-6.387-1.007-12.775-.956-12.782 2.503 4.758 4.731 9.535 6.697 14.312 11.136 2.59 8.444-7.133.377-16.918-7.66-9.87-20.695-19.803-20.86-19.575.103.275-5.298 28.783 13.794 34.661z" id="Shape" filter="url(#t)"/><path d="M412.956 121.889c.206.292.385.566.575.848-7.963-2.186-13.291 4.207-13.293 4.161 5.369.149 10.79.536 16.244 1.168 4.176 11.211-5.982 9.138-17.249 6.466-11.263-3.02-23.634-6.638-23.784-6.541-.478-.027 24.197-23.96 37.507-6.102z" id="Shape" filter="url(#u)"/><path d="M415.149 119.601l.885.552c-2.649-7.886 2.779-13.88 2.834-13.875 1.161 5.691 2.026 11.336 2.615 16.916 10.741 5.578 10.866-5.534 5.449-17.971-4.971-12.438-15.482-26.2-15.699-25.956.064.358-13.841 29.524 3.916 40.334z" id="Shape" filter="url(#v)"/><path d="M445.42 163.273l.344 1.059c-7.678-4.504-15.195.874-15.186.818 5.553 1.582 11.109 3.464 16.644 5.652.958 13.081-9.155 7.935-20.058 2.15-10.821-6.201-22.432-13.04-22.599-12.966-.503-.161 32.331-19.388 40.855 3.287z" id="Shape" filter="url(#w)"/><path d="M448.421 161.446l.761.83c-.362-9.112 7.147-14.019 7.204-13.998-.508 6.392-1.319 12.648-2.409 18.745 9.608 9.015 13.135-2.829 11.202-17.627-1.457-14.677-8.372-32.309-8.658-32.065-.009.447-23.339 27.849-8.1 44.115z" id="Shape" filter="url(#x)"/><path d="M466.899 216.604l.035 1.227c-6.743-7.146-16.374-3.714-16.349-3.778 5.385 3.334 10.69 7.03 15.881 11.083-3.062 14.151-12.22 5.404-21.937-3.914-9.512-9.789-19.583-20.148-19.765-20.11-.5-.348 40.09-11.275 42.135 15.492z" id="Shape" filter="url(#y)"/><path d="M470.651 215.6l.548 1.116c2.444-9.777 11.92-12.697 11.976-12.654-2.508 6.664-5.307 13.071-8.361 19.199 7.385 12.669 14.856 1.185 17.353-15.254 2.979-16.146.983-37.247.606-37.033-.131.531-33.199 22.78-22.122 44.626z" id="Shape" filter="url(#z)"/><path d="M472.803 280.02c-.117.458-.241.876-.361 1.31-4.821-9.887-16.148-9.527-16.098-9.594 4.635 5.318 9.055 11.036 13.213 17.132-7.916 13.838-14.662 1.277-21.948-11.706-6.892-13.469-14.323-27.36-14.514-27.374-.456-.586 46.179 1.086 39.708 30.232z" id="Shape" filter="url(#A)"/><path d="M477.104 280.261l.216 1.374c5.766-9.499 16.737-9.366 16.786-9.295-4.807 6.242-9.856 12.078-15.104 17.489 3.563 16.061 15.39 6.577 23.346-10.15 8.411-16.207 12.952-39.659 12.452-39.528-.324.579-42.353 13.32-37.696 40.11z" id="Shape" filter="url(#B)"/><path d="M457.258 348.905c-.293.434-.574.824-.862 1.23-1.417-12.232-13.47-16.135-13.379-16.191 2.962 7.294 5.502 14.969 7.556 22.974-13.574 11.36-15.655-4.505-18.663-20.693-2.327-16.592-5.582-33.507-5.771-33.584-.34-.874 48.52 17.924 31.119 46.264z" id="Shape" filter="url(#C)"/><path d="M461.67 350.813c-.103.53-.187 1.02-.28 1.526 9.533-7.77 20.964-3.496 20.996-3.393-7.312 4.798-14.77 9.021-22.305 12.665-2.563 18.267 13.744 13.063 28.228-1.727 14.851-13.99 27.876-37.567 27.212-37.61-.625.549-48.995-1.246-53.851 28.539z" id="Shape" filter="url(#D)"/><path d="M412.793 414.321c-.504.323-.98.606-1.473.904 4.162-13.255-6.779-22.372-6.63-22.394-.122 8.754-.982 17.748-2.67 26.881-19.896 5.732-13.896-11.495-9.922-29.303 5.084-17.949 8.143-36.479 7.973-36.625-.11-1.18 43.868 38.352 12.722 60.537z" id="Shape" filter="url(#E)"/><path d="M416.525 418.18l-1.006 1.461c13.573-3.986 23.548 5.204 23.55 5.339-9.847 1.959-19.655 3.179-29.334 3.69-11.992 17.653 8.416 19.668 30.441 10.221 22.211-8.338 46.04-28.138 45.156-28.504-1.079.341-50.233-20.828-68.807 7.793z" id="Shape" filter="url(#F)"/><path d="M329.954 460.77c-.764.082-1.469.136-2.203.197 12.905-11.293 6.23-25.692 6.468-25.632-5.331 8.722-11.869 17.312-19.738 25.582-26.553-4.195-7.399-18.214 7.469-34.079 16.604-15.412 28.925-32.672 28.803-32.876.285-1.44 27.289 59.17-20.799 66.808z" id="Shape" filter="url(#G)"/><path d="M331.663 466.433l-2.043.981c17.555 2.519 22.815 16.425 22.766 16.582-12.085-2.649-23.825-6.137-35.097-10.368-26.102 11.428-2.83 24.1 27.546 24.904 30.235 2.203 67.576-7.461 66.397-8.391.386-.149-11.676-10.944-26.399-19.324-15.123-8.362-32.908-14.309-53.17-4.384z" id="Shape" filter="url(#H)"/><path d="M246.036 497.65l5.693 8.806 46.234-28.405-1.414-4.247c.001 0-30.317 21.605-50.513 23.846z" id="Shape" filter="url(#I)"/><path d="M297.964 497.65l-5.694 8.806-46.233-28.405 1.415-4.247c-.001 0 30.316 21.605 50.512 23.846z" filter="url(#J)"/></g></g></g></svg>